<?xml version="1.0" encoding="UTF-8"?>
<svg id="Ebene_1" data-name="Ebene 1" xmlns="http://www.w3.org/2000/svg" version="1.1" viewBox="0 0 1280 1024">
  <defs>
    <style>
      .cls-1 {
        fill: #000;
        stroke-width: 0px;
      }
    </style>
  </defs>
  <path class="cls-1" d="M627.87,312.38c8.33,0,16.67,0,25,0,1.04.71,2.24.6,3.4.67,7.8.53,15.51,1.64,23.18,3.16,106.17,21.02,176.52,123.52,157.97,230.17-16.11,92.61-94.09,161.66-187.82,165.75-49.48,2.16-94.12-12.02-132.98-42.84-39.83-31.59-64.33-72.66-73.24-122.82-1.27-7.15-2.01-14.39-2.99-21.59,0-8.33,0-16.67,0-25,.58-4.76,1.07-9.53,1.74-14.28,5.75-40.81,22.19-76.74,49.91-107.23,30.86-33.94,68.96-55.12,114.27-62.97,7.15-1.24,14.38-2.02,21.57-3.02ZM625.79,546.6c4.1,2.72,7.85,5.27,11.66,7.72,5.35,3.44,11.14,5.45,17.56,5.78,21.96,1.12,38.88-8,51.3-25.63,13.22-18.76,17.47-40.02,16.09-62.62-1.35-22.15-11.02-39.69-29.83-51.6-21.8-13.8-45.8-16.62-70.61-11.65-34,6.81-71.05,38.14-62.85,89.18,2.46,15.31,10.49,26.02,25.93,30.45,2.3.66,3.18.1,4.15-1.88,3.49-7.08,3.08-13.87-1.37-20.31-7.06-10.23-7.37-21.49-4.74-32.96,7.01-30.54,39.73-52.23,70.67-46.44,16.97,3.17,30.6,11.85,35.92,29.22,7.39,24.1,3.87,47.12-9.79,68.33-4.7,7.3-11.38,12.41-20.18,14.31-17.06,3.68-27.75-6.56-24.53-23.64,1.3-6.91,3.52-13.58,5.59-20.28,2.37-7.7,5.04-15.34,5.37-23.5.45-11.22-6.4-18.25-17.66-18.07-6.49.11-11.58,3.21-15.16,8.34-9.05,12.97-10.85,27.03-5.17,41.85.84,2.19,1.14,4.11.55,6.37-2.92,11.19-5.65,22.43-8.6,33.61-5.4,20.46-9.28,41.11-8.09,62.42.22,3.98.72,7.95,1.13,12.34,3.49-2.05,5.83-4.46,8.07-6.96,8.7-9.73,13.57-21.44,17.33-33.72,3.04-9.92,4.94-20.11,7.23-30.66Z"/>
</svg>