<?xml version="1.0" encoding="UTF-8"?>
<svg id="Ebene_1" data-name="Ebene 1" xmlns="http://www.w3.org/2000/svg" version="1.1" viewBox="0 0 1280 1024">
  <defs>
    <style>
      .cls-1 {
        fill: #000;
        stroke-width: 0px;
      }
    </style>
  </defs>
  <path class="cls-1" d="M623.13,689.9c-38.66,0-77.31-.03-115.97.06-3.07,0-4.86-.85-6.49-3.58-32.09-53.66-64.3-107.26-96.48-160.87-6.19-10.3-12.22-20.7-18.7-30.82-2.48-3.88-2.56-6.81-.12-10.8,22.16-36.26,44.11-72.65,66.12-109,16.37-27.05,32.77-54.09,49.04-81.21,1.6-2.66,3.34-3.7,6.45-3.7,77.46.08,154.91.07,232.37,0,2.75,0,4.38.82,5.84,3.25,38.65,64.25,77.37,128.46,116.16,192.63,1.46,2.41,1.53,4.1.06,6.55-38.8,64.66-77.53,129.36-116.17,194.12-1.66,2.78-3.58,3.46-6.57,3.46-38.51-.08-77.03-.05-115.54-.05v-.02ZM622.62,669.07c34.79,0,69.58-.02,104.37.04,2.77,0,4.75-.47,6.34-3.15,34.16-57.26,68.38-114.48,102.75-171.62,2.31-3.84,2.23-6.53-.07-10.32-34.04-56.16-67.95-112.4-101.74-168.71-2.22-3.7-4.62-4.97-8.86-4.96-66.43.13-132.86.24-199.28-.1-8.16-.04-12.82,2-17.22,9.39-32.93,55.33-66.43,110.32-99.85,165.35-1.89,3.11-1.87,5.37.01,8.51,34.49,57.23,68.87,114.52,103.18,171.86,1.71,2.85,3.6,3.81,6.86,3.79,34.5-.11,69-.07,103.51-.07Z"/>
  <path class="cls-1" d="M654.39,469.81c-2.46,5.05-5.04,10.04-7.37,15.15-5.51,12.11-10.64,24.39-15.14,36.91-1.01,2.82-2.33,4.09-5.52,3.99-8.44-.24-16.89-.14-25.34-.06-2.43.02-3.65-.57-3.64-3.34.07-29.78.05-59.56.07-89.34,0-.39.18-.79.37-1.55,5.02,3.41,10.15,5.9,16.31,5.7,6.04-.2,11-2.69,16.24-7.11v30.62c2.75-.34,2.57-2.34,3.2-3.59,12.55-25,29.89-45.47,55.84-57.22,27.05-12.25,52.38-7.36,75.43,10.07,10.06,7.6,14.99,19.01,17.61,31.19,3.08,14.33,3.12,28.72-.45,42.99-6.11,24.44-23.16,39.78-48.09,43.42-9.85,1.44-19.71,1.51-29.51-.3-26.86-4.96-43.8-22.65-47.84-49.81-.37-2.48-.7-4.96-1.05-7.45l-1.11-.28ZM690.75,461.83c-.01,8.66,1.1,17.12,4.81,25.05,4.93,10.53,12.96,16.52,24.9,16.34,11.99-.18,20-6.52,24.29-17.22,6.38-15.91,6.37-32.16.16-48.12-4.29-11.04-12.68-17.11-24.75-17.17-12.04-.06-20.25,5.93-25.03,16.82-3.39,7.74-4.39,15.93-4.39,24.29Z"/>
  <path class="cls-1" d="M560.77,460.43c1.54.55,2.32.87,3.12,1.11,18.63,5.48,25.99,18.01,21.78,37.01-2.5,11.29-9.52,18.66-19.97,23-8.73,3.62-17.96,4.79-27.32,4.83-17.32.08-34.65-.05-51.97.09-3.3.03-4.35-.82-4.34-4.27.12-40.23.08-80.46.08-120.69,0-1.95-.55-4.05,2.76-4,21.33.31,42.66-.54,63.98.49,5.75.28,11.32,1.71,16.57,4.16,12.03,5.62,17.86,15.18,17.84,28.35-.02,13.22-5.9,22.7-18.17,28.02-1.17.51-2.34,1.02-4.37,1.9ZM516.42,486.79c0,4.14,0,8.28,0,12.42,0,1.46-.12,2.94,2.07,2.91,7.97-.11,16.02.67,23.79-1.83,5.26-1.69,8.96-4.88,9.91-10.65,1.37-8.31-2.89-14.53-11.63-16.68-7.16-1.76-14.48-1.06-21.74-1.22-1.92-.04-2.44.9-2.42,2.63.06,4.14.02,8.28.01,12.42ZM516.42,434.84c0,3.72.01,7.44,0,11.16,0,1.41.19,2.59,2,2.59,7.43,0,14.92.51,22.05-2.26,6.16-2.39,9.08-6.87,8.56-12.85-.49-5.6-3.8-9.09-10.16-10.58-6.63-1.56-13.39-.84-20.09-1.02-1.95-.05-2.41.95-2.38,2.66.07,3.43.02,6.87.02,10.3Z"/>
  <path class="cls-1" d="M613.35,396.15c9.55-.07,17.26,7.51,17.33,17.02.07,9.48-7.58,17.24-17.08,17.34-9.49.1-17.23-7.56-17.29-17.08-.06-9.59,7.45-17.2,17.03-17.27Z"/>
  <path class="cls-1" d="M560.9,604.44c-.26,1.79-.35,3.52-.78,5.15-1.04,3.94-3.32,6.59-7.72,6.67-4.4.08-6.82-2.47-7.96-6.38-1.01-3.48-.94-7.05-.02-10.55,1.05-4,3.49-6.45,7.88-6.44,4.44,0,6.69,2.69,7.8,6.57.46,1.63.55,3.36.8,4.97ZM557.77,603.2c-.07-.44-.22-2-.61-3.51-.66-2.51-2.01-4.62-4.89-4.57-2.81.05-4.24,2.07-4.95,4.59-1.04,3.67-1.03,7.34.39,10.91.79,1.98,2.18,3.37,4.5,3.33,2.28-.04,3.67-1.38,4.53-3.34.87-2,1.08-4.12,1.03-7.41Z"/>
  <path class="cls-1" d="M743.84,614.8c-4.75,2.22-7.31,1.7-9-1.82-2.16-4.5-.83-11.54,2.5-13.29,1.34-.7,2.74-.79,4.15-.27.53.19,1.08.92,1.46.81,6.61-1.86,3.37,3.4,3.68,5.48.49,3.36.19,6.85.12,10.28-.11,5.79-4.24,8.71-9.89,7.07-.96-.28-2.2-.45-1.97-1.78.3-1.77,1.53-.62,2.35-.49,5.35.9,7.16-.72,6.6-6ZM744.19,607.85c-.29-2.92-.04-6.39-3.69-6.47-4-.09-3.72,3.57-3.9,6.36-.07,1.11.18,2.27.41,3.38.36,1.7,1.38,2.88,3.19,2.94,2.04.08,3.11-1.26,3.56-3.07.27-1.09.31-2.25.42-3.15Z"/>
  <path class="cls-1" d="M529.6,610.15c-.57,1.56,1.26,4.26-1.46,5.36-3.31,1.33-6.75,1.22-9.88-.74-4.28-2.67-5.95-9.82-3.73-15.52,1.89-4.87,6.2-7.15,11.78-6.21,1.24.21,3,.25,2.75,1.96-.36,2.41-2.06.57-3,.44-4.71-.64-7.93,1.23-9.17,5.6-1.4,4.92.62,10.92,4.35,12.28,1.91.69,4.79,1.68,5.41-1.06.43-1.94,2.31-5.56-2.06-6.44-.8-.16-1.36-.51-1.24-1.37.13-.9.95-.86,1.64-.98,4.31-.75,4.61-.34,4.61,6.67Z"/>
  <path class="cls-1" d="M680.22,600.91c0-3.09-.02-5.47.01-7.85.01-.91.31-1.74,1.48-1.6.85.1,1.15.76,1.15,1.53.03,7.13.05,14.26.03,21.38,0,.49-.27,1.18-.64,1.4-.36.21-1.04.03-1.53-.14-3.07-1.02-7,2.73-9.49-1.94-2.03-3.8-1.47-11.44,1.43-13.61,2.38-1.78,4.75-.97,7.57.82ZM672.57,607.25c.35,3.22-.05,6.87,4.03,6.72,3.67-.14,3.42-3.62,3.5-6.29.04-1.39-.22-2.85-.64-4.19-.47-1.48-1.68-2.32-3.28-2.23-1.41.07-2.45.91-2.85,2.23-.41,1.34-.56,2.77-.75,3.76Z"/>
  <path class="cls-1" d="M641.46,557.99c7.01-2.41,9.11-.89,9.13,6.21,0,2.42.02,4.85-.01,7.27-.01.97.14,2.22-1.36,2.14-1.43-.08-1.22-1.32-1.23-2.28-.02-2.85-.01-5.71-.03-8.56-.01-1.88-.6-3.56-2.72-3.68-2.22-.13-3.42,1.37-3.56,3.46-.19,2.84-.12,5.7-.23,8.55-.04,1.04.39,2.58-1.4,2.53-1.43-.04-1.2-1.36-1.2-2.31-.02-6.7-.01-13.41,0-20.11,0-1.02,0-2.14,1.49-2.03,1.2.09,1.11,1.11,1.12,1.94.03,2.26,0,4.51,0,6.88Z"/>
  <path class="cls-1" d="M611.08,610.59c1.47-4.89,2.9-9.79,4.43-14.66.39-1.24.48-3.39,2.48-2.66,1.68.61.36,2.2.03,3.27-1.69,5.59-3.46,11.16-5.22,16.74-.37,1.18-.4,2.68-2.14,2.78-1.77.1-1.96-1.32-2.33-2.54-1.74-5.73-3.53-11.44-5.18-17.2-.28-.99-1.81-2.54.28-3.13,2.04-.58,2.11,1.36,2.5,2.67,1.43,4.91,2.85,9.83,4.28,14.75l.87-.02Z"/>
  <path class="cls-1" d="M499.2,604.49c0-2.71.17-5.44-.04-8.13-.21-2.7.82-3.6,3.42-3.34,1.84.18,3.71.04,5.56.07.74.01,1.48.18,1.5,1.1.02.86-.61,1.21-1.4,1.25-.57.03-1.14.09-1.71.04-2.81-.22-4.79-.1-4.73,3.88.05,3.76,1.9,3.71,4.53,3.66,1.07-.02,3.04-.76,2.91,1.29-.09,1.54-1.82.89-2.85.95-3.82.23-6.17,4.18-4.24,7.43,1.11,1.88,3.13.65,4.7,1.01,1.13.26,3.14-.73,3.19,1.03.07,2.23-2.13,1.28-3.33,1.32-7.51.23-7.51.19-7.51-7.28,0-1.43,0-2.85,0-4.28Z"/>
  <path class="cls-1" d="M567.14,608.76c0,1.7.08,2.99-.03,4.25-.1,1.13.6,3.03-1.41,2.91-1.9-.12-1.16-1.99-1.17-3.1-.08-6.13-.08-12.26,0-18.4.01-1.08-.72-3.03,1.37-2.89,1.88.13,1.17,1.98,1.2,3.11.09,3.35.03,6.71.03,10.33,3.54-1.21,3.95-5.87,7.9-5.69.09.35.27.63.2.8-1.21,2.84-5.82,4.16-4.63,7.74.93,2.79,3.6,5,6.17,8.33-5.76-.15-5.78-5.73-9.64-7.4Z"/>
  <path class="cls-1" d="M714.58,607.88c0,.43,0,.85,0,1.28,0,6.72-.81,7.5-7.37,7.1-2.5-.15-4.1-1.53-4.26-3.95-.24-3.69-.15-7.4-.15-11.1,0-.83,0-1.84,1.2-1.84,1.46,0,1.36,1.17,1.37,2.16.03,2.85,0,5.7.04,8.54.03,2,.52,3.86,2.99,3.83,2.25-.03,3.24-1.63,3.35-3.69.13-2.56.02-5.13.13-7.69.05-1.15-.63-2.98,1.25-3.09,2-.12,1.37,1.75,1.43,2.89.09,1.85.02,3.7.02,5.55Z"/>
  <path class="cls-1" d="M730.49,608.13c0,2.37.04,4.09-.02,5.81-.03.96.11,2.19-1.45,2.03-1.16-.12-1.15-1.09-1.16-1.95-.02-2.72,0-5.44-.02-8.16-.02-2.07-.09-4.35-2.88-4.37-2.8-.02-3.44,2.14-3.5,4.47-.06,2.58,0,5.15-.04,7.73-.01.98.12,2.21-1.28,2.29-1.45.08-1.4-1.16-1.41-2.15-.04-4.15-.04-8.3-.06-12.45,0-.86.38-2.36.98-1.91,2.97,2.26,6.04-2.13,8.97.44,2.94,2.58,1.33,5.91,1.87,8.23Z"/>
  <path class="cls-1" d="M621.85,567.08c0,1,.1,2.01-.02,2.99-.21,1.67,1.11,5.27-3.01,2.55-.36-.24-1.44.76-2.25,1-2.75.81-5.31.5-6.4-2.47-1.13-3.09-.14-5.63,3.1-6.92.78-.31,1.67-.32,2.49-.55,1.4-.39,4,.71,3.37-2.34-.47-2.27-2.32-2.67-4.35-2.37-.55.08-1.09.31-1.62.52-.68.27-1.44.6-1.77-.32-.28-.78.36-1.25,1.01-1.65,4.02-2.46,9.07.12,9.41,4.86.11,1.56.02,3.14.02,4.7h.02ZM616.55,565.47c-2.18.25-4.12,1.04-4.02,3.82.07,1.93,1.36,2.77,3.2,2.54,2.59-.34,3.5-2.17,3.61-4.53.09-1.94-1.32-1.85-2.78-1.83Z"/>
  <path class="cls-1" d="M577.23,607.32c.12-5.44,2.69-8.43,7.05-8.22,4.15.2,6.45,3.46,6.32,8.96-.13,5.43-2.7,8.42-7.06,8.21-4.17-.2-6.43-3.41-6.31-8.95ZM579.94,607.67c.08.86.06,1.88.28,2.85.48,2.14,1.61,3.92,4.06,3.49,3.6-.63,3.5-3.7,3.51-6.4,0-2.74-.06-5.79-3.65-6.3-2.43-.34-3.49,1.55-3.94,3.68-.18.83-.17,1.7-.25,2.69Z"/>
  <path class="cls-1" d="M644.2,607.56c.05-5.5,2.49-8.54,6.79-8.47,4.23.07,6.58,3.2,6.54,8.72-.04,5.49-2.48,8.52-6.8,8.46-4.25-.07-6.59-3.19-6.54-8.71ZM654.82,607.78c.02-1.59-.05-3.16-.86-4.58-.87-1.53-2.21-2.42-3.91-1.81-3.29,1.17-3.08,4.12-3.06,6.83.02,2.49.24,5.05,3.26,5.78,1.72.42,3.03-.43,3.82-2.04.66-1.33.73-2.75.74-4.18Z"/>
  <path class="cls-1" d="M686.72,607.34c0-1.43-.06-2.85.02-4.28.1-1.86-1.06-5.37,3.03-2.54.07.05.26-.09.4-.11,8.32-.96,8.41-.88,8.41,7.35,0,2.14,0,4.28-.03,6.41-.01.87-.11,1.79-1.28,1.82-1.2.02-1.27-.94-1.28-1.79-.04-2.85,0-5.7-.04-8.55-.04-2.1-.34-4.24-3.09-4.19-2.53.04-3.29,2.01-3.4,4.14-.14,2.84-.06,5.7-.12,8.55-.02.85-.08,1.82-1.26,1.81-1.12,0-1.33-.88-1.33-1.79-.02-2.28,0-4.56,0-6.84h-.02Z"/>
  <path class="cls-1" d="M594.58,564.98c0-1.57-.05-3.15,0-4.72.07-1.79-.77-4.85,2.8-2.16.62.47.94-.34,1.41-.51,4.95-1.74,7.39-.16,7.6,5.04.11,2.85.03,5.72.01,8.57,0,.97.23,2.26-1.17,2.35-1.78.13-1.46-1.4-1.49-2.46-.07-2.86,0-5.72-.1-8.57-.07-1.86-.76-3.51-2.96-3.46-1.99.05-3.19,1.43-3.32,3.31-.22,2.99-.13,6-.17,8.99-.01,1,.07,2.21-1.32,2.24-1.46.03-1.28-1.24-1.3-2.21-.03-2.14,0-4.29-.01-6.43Z"/>
  <path class="cls-1" d="M619.6,607.55c-.02-2.19.31-4.32,1.68-6.07,2.04-2.61,4.75-3.22,7.58-1.56,2.82,1.66,3.5,4.64,2.74,7.49-.56,2.07-3,.62-4.5,1.12-1.56.51-4.61-1.64-4.46,1.84.13,3.05,2.41,4.29,5.5,3.8.85-.13,2.13-1.3,2.51.14.4,1.54-1.25,1.61-2.3,1.83-5.39,1.13-8.81-2.24-8.74-8.58ZM625.31,606.52c1.2-.6,3.72,1.14,3.73-1.86,0-1.85-.97-3.46-3.02-3.53-2.29-.09-3.22,1.67-3.49,3.62-.3,2.16,1.52,1.5,2.77,1.77Z"/>
  <path class="cls-1" d="M625.09,565.66c-.09-5.99,3.92-9.9,8.93-8.74.85.2,1.81.3,1.67,1.48-.16,1.42-1.2.69-1.96.71-4.23.07-5.89,1.95-5.81,6.53.08,4.26,1.68,5.88,5.94,5.93.79.01,1.84-.59,1.96.77.1,1.12-.93,1.28-1.74,1.51-4.71,1.34-8.91-2.49-8.99-8.18Z"/>
  <path class="cls-1" d="M635.12,607.26c0-1.57,0-3.13,0-4.7q.01-2.72,2.69-2.14c.11.02.22.19.31.18,1.46-.14,3.16-2.96,4.19-.49.88,2.11-2.63,1.25-3.42,2.89-.77,1.61-1.11,3.19-1.09,4.92.01,1.56.12,3.14-.04,4.69-.12,1.22.85,3.32-1.4,3.28-1.85-.03-1.12-1.95-1.19-3.09-.11-1.84-.03-3.7-.03-5.55h-.02Z"/>
  <path class="cls-1" d="M662.52,599.32c1.23,2.74,2.7.2,4.23-.03.45-.07,1.16.19,1.42.55.31.41.31,1.29-.33,1.46-5.55,1.5-3.99,6.05-4.27,9.81-.07.99.01,1.99-.03,2.98-.04.82.04,1.82-1.15,1.9-1.13.07-1.42-.75-1.43-1.67-.04-4.55-.05-9.1-.06-13.65,0-.81.38-1.32,1.61-1.34Z"/>
</svg>