<?xml version="1.0" encoding="UTF-8"?>
<svg id="Ebene_1" data-name="Ebene 1" xmlns="http://www.w3.org/2000/svg" version="1.1" viewBox="0 0 1280 1024">
  <defs>
    <style>
      .cls-1 {
        fill: #000;
        stroke-width: 0px;
      }
    </style>
  </defs>
  <path class="cls-1" d="M641.46,701.83c-144.62,0-289.23,0-433.85,0q-10,0-10-10.17c.03-69.54-.54-139.09.27-208.63.67-57.91.24-115.82.62-173.73.05-7.29.18-7.46,7.45-7.46,290.34,0,580.68,0,871.02,0,7.36,0,7.42.06,7.42,7.41,0,128.39,0,256.77,0,385.16,0,7.39-.04,7.41-7.97,7.41-144.99,0-289.97,0-434.96,0ZM396.63,602.68c-3.47,11.15-6.59,20.58-9.3,30.13-1.09,3.84-3.05,6.42-6.51,8.38-8.78,4.96-17.4,10.18-26.68,15.64,6.18,1.05,11.77,1.89,17.31,2.98,7.34,1.45,7.53,1.83,5.62,9.18-2.1,8.09-4.26,16.17-6.4,24.26.5.31,1,.63,1.5.94.72-1.02,1.36-2.12,2.19-3.04,6.18-6.84,12.54-13.53,18.54-20.52,2.91-3.39,5.87-3.91,9.74-2.11,4.35,2.02,8.79,3.84,13.2,5.72,1.14.49,2.36,1.6,3.57.61,1.21-.99.42-2.41.07-3.61-1.9-6.55-3.73-13.13-5.79-19.63-.96-3.04-.65-5.5,1.06-8.31,19.07-31.42,43.31-58.29,71.88-81.25,62.77-50.45,132.28-88.63,208.95-113.64.8-.26,2.19-.08,2.28-1.86-22.6,2.65-43.75,9.79-64.41,18.28-58.05,23.87-111.73,55.35-161.03,94.16-23.84,18.77-46.27,39.04-63.28,64.53-2.34,3.51-3.53,2.15-4.6-.84-2.22-6.18-4.04-12.52-7.91-20ZM437.26,475.19c-.44.11-.88.21-1.32.32-2.1,6.86-4.44,13.65-6.21,20.59-1.34,5.26-3.91,8.54-9.29,10.46-7.28,2.61-14.52,5.65-21.7,10.4,6.58,1.82,12.22,3.49,17.92,4.93,3.43.87,4.43,2.5,3.28,6-2.45,7.48-4.57,15.06-6.83,22.6,7.19-5.47,13.76-11.27,19.87-17.53,3.09-3.16,5.8-3.79,9.72-1.84,5.01,2.49,10.25,4.51,16.05,7.02-.9-6.67-2.39-12.19-4.53-17.42-2-4.88-1-8.19,2.9-11.56,4.86-4.21,9.22-8.97,14.69-14.38-8.12-.31-14.47.86-20.78,2.14-3.28.66-5.13-.26-6.34-3.49-2.3-6.15-4.95-12.18-7.46-18.26ZM539.01,661.47c.64-.45,1.28-.89,1.92-1.34-1.26-7.34-2.29-14.73-3.85-22.01-.95-4.47,0-7.71,3.45-10.79,5.26-4.71,11.05-8.93,16.17-15.41-6.31,0-11.65-.31-16.94.09-5.6.42-7.92-1.93-8.76-7.29-1-6.39-1.69-12.92-4.5-20.32-2.67,8.25-5.24,15.14-7.08,22.23-1.25,4.8-3.81,6.41-8.58,6.64-6.12.3-12.35.65-19.15,3.09,5.05,4.37,9.26,8.48,13.96,11.93,4.29,3.15,5.13,6.49,3.29,11.4-2.75,7.36-4.92,14.93-7.33,22.42,6.4-4.54,12.04-9.46,17.36-14.69,2.9-2.86,5.02-2.95,7.68.2,3.99,4.73,8.24,9.24,12.38,13.85ZM513.79,432.11c-3.02-6.41-5.21-11.44-7.74-16.29-1.69-3.25-1.26-5.31,2.01-7.23,4.7-2.75,9.15-5.92,15.09-9.82-8.05-.51-14.4-1.2-20.75-1.21-4.09,0-6.43-1.5-8.14-5.12-2.23-4.73-4.6-9.45-8.39-14.36-1.92,5.57-3.82,10.33-5.18,15.24-1.17,4.2-3.66,5.82-7.87,6.3-7.44.84-14.88,1.93-23.34,5.07,7.29,2.48,13.26,4.69,19.35,6.54,4.03,1.23,5.3,3.26,3.77,7.34-1.84,4.93-3.27,10.01-4.88,15.03,6.98-3.13,13.04-6.86,18.87-10.94,3.13-2.19,5.91-2.4,9.17-.51,5.4,3.12,10.92,6.05,18.02,9.97ZM580.55,373l1.18-.92c-2.03-5.5-3.84-11.11-6.17-16.48-1.8-4.14-.99-6.53,3.28-8.1,4.07-1.5,8.01-3.39,13.27-5.65-7.31-3.28-13.63-5.04-20.03-6.36-4.01-.83-6.53-2.69-8.2-6.44-2.57-5.8-5.58-11.4-8.91-18.11-2.62,5.66-3.31,10.39-4.22,15-.82,4.18-3,5.38-7.02,4.86-6.15-.79-12.35-1.23-18.54-1.82,4.1,3.98,8.56,7.08,13.02,10.19,7.9,5.5,7.82,5.48,5.77,14.73-.8,3.6-2.42,7.12-1.93,11.62,4.48-2.19,8.61-3.82,12.34-6.11,4.6-2.83,8.18-2.73,12.14,1.36,4.31,4.44,9.32,8.2,14.03,12.26ZM659.29,656.25c.44-.27.87-.54,1.31-.81-1.44-5.48-2.81-10.98-4.34-16.43-2.19-7.82-2.23-7.79,5.05-10.96,3.06-1.33,6.07-2.78,10.07-4.62-6.66-3.03-11.92-5.69-17.39-7.81-3.66-1.42-5.61-3.72-6.56-7.42-1.62-6.29-3.51-12.51-5.68-20.12-1.58,5.96-2.87,10.36-3.9,14.82-.92,3.98-2.92,5.07-6.77,3.47-5.39-2.23-10.87-4.27-17.87-5.74,5.17,6.02,9.3,11.37,14.01,16.15,4.07,4.13,4.57,8.17,2.36,13.37-2.15,5.05-3.52,10.42-5.24,15.66,5.48-1.68,9.8-3.72,13.75-6.34,3.99-2.64,6.54-1.72,9.22,1.92,3.77,5.13,7.96,9.94,11.97,14.89ZM661.71,310.43c-.43-.04-.87-.08-1.3-.12-1.5,5.06-3.18,10.09-4.45,15.21-.94,3.8-2.74,4.58-6.39,3.36-4.18-1.39-8.09-3.89-13.72-4.05,3.26,4,5.55,7.66,8.65,10.42,6.06,5.41,7.01,11.48,4.3,18.82-.9,2.43-3.01,5.98-.83,7.66,2.03,1.56,5.2-1.03,7.45-2.44,4.69-2.95,7.85-2.27,10.88,2.51,2.92,4.61,6.62,8.72,9.98,13.04-.03-6.25-.91-11.89-2.57-17.29-1.45-4.75.04-7.24,4.41-8.95,3.44-1.35,6.7-3.18,11.15-5.34-6.29-2.3-11.06-4.23-15.96-5.78-3.55-1.12-5.45-3.12-6.28-6.82-1.52-6.8-3.52-13.5-5.32-20.24ZM815.65,525.66c-5.94,0-10.52-.16-15.08.04-4.74.21-7.54-1.56-8.89-6.32-1.48-5.2-3.64-10.2-5.98-16.6-1.63,5.71-3.17,9.89-3.95,14.2-.97,5.38-3.85,6.42-8.66,5.14-4.58-1.21-9.26-2.05-13.89-3.06,2.97,4.17,6.25,7.65,10.06,10.4,5.17,3.73,7.55,7.77,4.11,13.92-.97,1.74-1.33,3.82-1.93,5.76-.33,1.04-.84,2.18.12,3.1.99.95,2.1.33,3.07-.13,3-1.42,6.1-2.7,8.93-4.42,3.49-2.13,6.28-1.78,9.54.72,3.63,2.79,7.19,5.99,12.6,7.44-1.84-4.32-3.17-7.94-4.89-11.37-1.83-3.65-1.14-6.02,2.37-8.27,4.14-2.64,8.44-5.24,12.47-10.56ZM823.19,469.48c.52.44,1.05.88,1.57,1.31,3.59-3.91,7.36-7.67,10.73-11.76,3.3-4,6.76-4.95,11.56-2.62,3.03,1.47,7.39,4.4,9.59,2.18,2.1-2.11-.94-6.48-2.28-9.53-2.34-5.34-1.57-9.36,2.97-13.07,2.83-2.32,5.22-5.19,7.68-7.92.86-.96,2.54-1.8,1.21-4.02-4.45,1.57-8.98,3.01-13.38,4.77-3.35,1.34-5.12.59-6.02-3-.99-3.95-2.39-7.8-3.61-11.69-3.01,5.56-4.99,10.89-6.66,16.31-.98,3.19-2.91,4.9-6.09,5.63-4.76,1.11-9.47,2.4-15.59,3.97,4.43,2.72,7.56,4.89,10.92,6.62,3.29,1.69,3.91,3.85,2.66,7.2-1.92,5.14-3.53,10.41-5.28,15.62ZM741.67,618.03c-2.6-6.27-4.52-11.25-6.72-16.1-1.6-3.53-.54-5.43,2.95-6.76,3.87-1.47,7.59-3.32,12.63-5.56-6.4-1.83-11.28-3.42-16.25-4.59-4.84-1.14-7.53-3.92-8.82-8.71-1.32-4.94-3.26-9.72-4.92-14.57-2.17,3.72-3.43,7.18-4.24,10.75-.9,3.97-2.47,5.3-6.51,3.26-4.16-2.11-8.62-3.62-12.94-5.39,2.79,5.29,6.01,9.79,9.92,13.59,3.82,3.72,4.72,7.51,2.99,12.41-1.14,3.23-1.75,6.64-2.66,10.23,3.95.08,6.74-1.53,9.46-2.82,4.56-2.17,7.8-1.35,11.16,2.4,3.77,4.2,7.78,8.32,13.95,11.87ZM774.31,325.87c-.42,0-.83-.02-1.25-.02-1.43,4.46-3.18,8.85-4.19,13.4-1.2,5.42-4.35,6.6-9.3,5.71-3.29-.59-6.67-.65-10-.95-.54.8-1.08,1.6-1.62,2.39,3.48,2.73,6.9,5.54,10.46,8.17,3.77,2.79,4.01,6.05,2.3,10.17-1.66,4-2.75,8.23-4.45,13.49,4.94-2.54,7.97-5.43,11.1-8.13,2.57-2.21,4.57-2.28,7.07.26,2.89,2.93,6.23,5.42,9.37,8.1.15-5.11-.46-9.63-1.62-14.01-1.08-4.07-.31-6.95,3.16-9.6,3.79-2.88,7.11-6.38,11.28-10.2-5.16-.8-9-.45-12.8.25-3.91.72-5.87-.83-6.56-4.66-.86-4.81-1.96-9.58-2.96-14.37ZM864.48,340.23c.34.55.68,1.11,1.03,1.66,2.24.77,4.44,1.74,6.74,2.25,4,.9,4.96,3,3.65,6.81-1.28,3.73-2.13,7.61-3.16,11.42,3.5-2.09,6.27-4.54,8.13-7.55,3.59-5.82,8.25-7.76,14.83-5.89,3.79,1.08,4.47-.97,2.61-3.76-3.63-5.44-2.25-9.83,1.92-14.23,2.51-2.65,4.46-5.84,6.66-8.79-3.97.81-7.17,2.22-10.18,3.95-3.57,2.05-5.38.89-6.39-2.79-.69-2.53-1.65-4.99-2.49-7.48-.52-.14-1.03-.27-1.55-.41-1.51,13.24-6.63,23.36-21.8,24.8Z"/>
</svg>