<svg viewBox="0 0 108.1 109.07" xmlns="http://www.w3.org/2000/svg"><path d="m75.25 63.52c-.16-.86-.86-1.53-1.73-1.63-7.94-.95-13.84 2.39-17.42 5.39v-4.71c6.86-.28 12-2.35 15.25-6.23 5.05-6.03 3.54-14 3.47-14.33-.1-.53-.42-.99-.87-1.29-.45-.29-1-.4-1.53-.28-7.9 1.75-13.17 5.11-16.33 7.8v-3.36c4.71-1.97 7.49-4.87 8.25-8.62 1.78-8.71-8.6-18.4-9.04-18.81-.79-.73-2.01-.7-2.77.05-7.26 7.23-10.22 13.62-8.81 18.99 1.31 4.96 5.94 7.45 8.36 8.43v2.95c-3.29-3.26-8.86-7.11-17.05-7.34-.93-.02-1.75.59-1.99 1.49-.08.31-1.92 7.55 2.55 13.47 3.21 4.26 8.74 6.63 16.43 7.06l-.02 5.09c-3.38-3.14-9.23-6.94-17.45-6.47-1.03.06-1.85.89-1.88 1.93-.01.41-.28 10.1 6.07 16.61 3.32 3.4 7.77 5.27 13.25 5.58l.11 4.89c.02 1.09.91 1.96 2 1.96h.02c1.1-.01 1.98-.9 1.98-2v-4.79c6.75-.15 11.86-2.18 15.21-6.05 5.56-6.42 4.01-15.4 3.95-15.78zm-23.29 17.77c-4.32-.3-7.79-1.75-10.33-4.35-3.65-3.73-4.62-8.99-4.87-11.79 9.31.4 14.5 7.41 15.23 8.46l-.03 7.67zm19.12-36.38c.04 2.28-.36 5.98-2.81 8.89-2.48 2.94-6.58 4.54-12.16 4.79v-4.71c1.42-1.7 6.06-6.45 14.98-8.97zm-23.49-9.45c-.92-3.53 1.28-8.24 6.37-13.68 2.93 3.14 7.39 9.11 6.46 13.69-.51 2.48-2.65 4.47-6.37 5.92-1.51-.55-5.52-2.33-6.46-5.93zm-8.78 17.66c-2.23-2.93-2.32-6.46-2.14-8.47 9.65 1.03 14.51 8.07 15.39 9.47l-.02 4.41c-6.32-.39-10.78-2.2-13.23-5.42zm29.45 23.59c-2.57 2.95-6.65 4.51-12.16 4.65v-8.47c1.84-2.17 7.15-7.43 15.36-7.14.13 2.45-.07 7.37-3.2 10.97z" fill="#2f4f50"/></svg>