<svg fill="none" height="640" viewBox="0 0 640 640" width="640" xmlns="http://www.w3.org/2000/svg"><path d="m24 48c-13.3 0-24 10.7-24 24s10.7 24 24 24h45.3c3.9 0 7.2 2.8 7.9 6.6l52.1 286.3c6.2 34.2 36 59.1 70.8 59.1h255.9c13.3 0 24-10.7 24-24s-10.7-24-24-24h-255.9c-11.6 0-21.5-8.3-23.6-19.7l-5.1-28.3h303.6c30.8 0 57.2-21.9 62.9-52.2l31-165.9c3.7-19.7-11.4-37.9-31.5-37.9h-412.7l-.4-2c-4.8-26.6-28-46-55.1-46zm184 528c26.5 0 48-21.5 48-48s-21.5-48-48-48-48 21.5-48 48 21.5 48 48 48zm224 0c26.5 0 48-21.5 48-48s-21.5-48-48-48-48 21.5-48 48 21.5 48 48 48z" fill="#2e4f4f"/></svg>