<svg viewBox="0 0 50 50" xmlns="http://www.w3.org/2000/svg"><path d="m38.42 19.93s-.01-.04-.02-.06c-.02-.06-.04-.11-.07-.17 0-.01 0-.02-.01-.03l-3.54-5.91v-5.87c0-.52-.42-.94-.94-.94h-16.71c-.52 0-.94.42-.94.94v5.96l-4.44 5.73s0 .01-.01.02c-.05.06-.09.13-.12.2v.03c-.02.06-.04.13-.05.2v.07.06 21.33c0 .52.41.94.93.94l25.02.37h.01c.25 0 .49-.1.66-.27.18-.18.28-.42.28-.67v-21.7c0-.08-.01-.15-.03-.23zm-2.57-.71h-5.91l3.71-3.67zm-17.78-10.38h14.82v4.25l-14.82.13v-4.39zm-4.64 12.27h9.37c.52 0 .94-.42.94-.94s-.42-.94-.94-.94h-8.39l3.18-4.1 13.93-.13-4.55 4.5s0 0 0 0c-.04.04-.08.09-.12.14-.02.02-.03.05-.04.07-.02.03-.03.06-.05.09-.01.03-.02.07-.03.1 0 .02-.02.05-.02.07-.01.06-.02.12-.02.18v20.6l-13.26-.2v-19.45zm15.15 19.68v-19.68h7.99v19.8z" fill="#2f4f50"/></svg>