<svg viewBox="0 0 50 50" xmlns="http://www.w3.org/2000/svg"><path d="m39.05 22.35c-1.16-3.16-3.87-5.82-7.66-7.55.85-.34 1.63-.79 2.32-1.38 3.31-2.83 3.34-7.49 3.34-7.69 0-.51-.36-.95-.86-1.06-5.31-1.12-8.88 2.76-10.75 6.34-1.65-3.31-4.86-5.43-5.03-5.54-.5-.32-1.17-.18-1.49.32-.33.5-.18 1.17.32 1.5.04.03 3.76 2.51 4.76 5.94-10.86 1.09-13.89 9.75-13.96 14.33v.08c.28 4.59 1.85 8.15 4.66 10.6 3.21 2.79 7.19 3.35 9.26 3.44l.04 1.03c.03.73.63 1.29 1.35 1.29h.06c.75-.03 1.32-.66 1.29-1.41l-.04-.97c3.91-.31 7.36-1.93 9.82-4.67 1.39-1.54 2.31-3.19 2.82-5.04.96-3.5.89-6.45-.25-9.55zm-10.4-12.38c1.76-2.37 3.83-3.47 6.15-3.31-.18 1.28-.74 3.61-2.52 5.13-1.35 1.15-3.2 1.66-5.5 1.51.38-.89.99-2.15 1.87-3.33zm8.57 21.36c-.42 1.52-1.18 2.88-2.34 4.16-2.33 2.59-5.72 4.01-9.57 4.01h-.02s-.06 0-.09 0c-.05 0-5.33.37-9.11-2.92-2.34-2.04-3.65-5.08-3.9-9.04.02-.86.6-11.66 13.06-12.26.05 0 .09 0 .13.02 1.44.15 2.98.56 4.57 1.22 3.55 1.48 6.06 3.81 7.06 6.56.98 2.69 1.04 5.15.2 8.23z" fill="#2f4f50"/></svg>