<svg viewBox="0 0 50 50" xmlns="http://www.w3.org/2000/svg"><path d="m38.56 13.3c-1.17-1.63-3.34-2.57-6.45-2.78-1.1-.07-2.12-.04-2.87.01v-3.76c0-.6-.49-1.08-1.08-1.08h-5.81c-.59 0-1.07.47-1.08 1.05l-.1 3.66c-5.14-.21-8.47.89-9.9 3.28-1.8 2.99.1 6.82.7 7.89v8.44c-.02.4-.09 2.73 1.25 5.5 1.31 2.69 4.27 6.35 10.93 8.51.11.04.22.05.33.05.08 0 .17 0 .25-.03.13-.03 3.19-.77 6.36-2.68 4.32-2.61 6.71-6.15 6.93-10.25 0-.02 0-.04 0-.06v-9.53c1.76-3.5 1.94-6.26.54-8.22zm-25.44 1.49c1.07-1.77 4.19-2.52 9.02-2.16.29.02.59-.08.81-.28s.35-.48.36-.77l.11-3.72h3.67v3.88c0 .32.14.62.38.82.24.21.56.3.87.25 1.81-.27 6.87-.48 8.47 1.75.87 1.22.66 3.17-.62 5.78-2.25.54-12.35 2.65-22.43 0-.66-1.23-1.67-3.84-.64-5.55zm22.74 16.23c-.42 7.41-9.59 10.34-11.34 10.83-10.87-3.67-10.42-11.4-10.39-11.72 0-.03 0-.06 0-.09v-7.37c9.38 2.23 18.36.71 21.73-.02v8.38z" fill="#2f4f50"/></svg>