<svg fill="none" height="32" viewBox="0 0 32 32" width="32" xmlns="http://www.w3.org/2000/svg"><path d="m25.333 9.33341h-4v-1.33333c0-1.41449-.5619-2.77104-1.5621-3.77123-1.0002-1.0002-2.3567-1.5621-3.7712-1.5621s-2.7711.5619-3.7713 1.5621c-1.0002 1.00019-1.5621 2.35674-1.5621 3.77123v1.33333h-3.99996c-.35362 0-.69276.14048-.94281.39053s-.39052.58916-.39052.94276v14.6667c0 1.0609.42143 2.0783 1.17157 2.8284.75015.7502 1.76756 1.1716 2.82843 1.1716h13.33329c1.0609 0 2.0783-.4214 2.8285-1.1716.7501-.7501 1.1715-1.7675 1.1715-2.8284v-14.6667c0-.3536-.1404-.69271-.3905-.94276-.25-.25005-.5892-.39053-.9428-.39053zm-12-1.33333c0-.70724.281-1.38552.7811-1.88562.5001-.50009 1.1783-.78105 1.8856-.78105.7072 0 1.3855.28096 1.8856.78105.5001.5001.781 1.17838.781 1.88562v1.33333h-5.3333zm10.6667 17.33332c0 .3536-.1405.6928-.3905.9428-.2501.2501-.5892.3905-.9429.3905h-13.33329c-.35362 0-.69276-.1404-.94281-.3905-.25005-.25-.39053-.5892-.39053-.9428v-13.3333h2.66663v1.3333c0 .3536.1405.6928.3906.9428.25.2501.5892.3905.9428.3905s.6927-.1404.9428-.3905c.25-.25.3905-.5892.3905-.9428v-1.3333h5.3333v1.3333c0 .3536.1405.6928.3906.9428.25.2501.5892.3905.9428.3905s.6927-.1404.9428-.3905c.25-.25.3905-.5892.3905-.9428v-1.3333h2.6667z" fill="#fff"/></svg>