<svg viewBox="0 0 50 50" xmlns="http://www.w3.org/2000/svg"><path d="m36.16 42.96c-.18 0-.36-.05-.52-.14l-10.81-6.4-10.63 6.4c-.34.2-.76.19-1.09-.02-.33-.22-.5-.6-.44-.99l2-13.77-8.61-8.14c-.28-.27-.39-.68-.27-1.05s.44-.64.83-.7l11.93-1.7 5.38-10.39c.17-.34.52-.55.9-.55.37-.01.73.2.9.54l5.56 10.4 12.12 1.87c.38.06.69.32.81.69.12.36.02.76-.25 1.04l-8.8 8.8 2 12.95c.06.39-.11.78-.44 1-.17.12-.37.17-.57.17zm-11.34-8.74c.18 0 .36.05.52.14l9.48 5.61-1.75-11.33c-.05-.32.06-.64.29-.87l7.75-7.75-10.64-1.64c-.32-.05-.59-.24-.74-.53l-4.89-9.15-4.73 9.13c-.15.29-.43.49-.76.54l-10.37 1.48 7.46 7.06c.24.23.36.56.31.89l-1.77 12.16 9.31-5.6c.16-.1.34-.15.52-.15z" fill="#2f4f50"/></svg>