<svg viewBox="0 0 50 50" xmlns="http://www.w3.org/2000/svg"><path d="m46.91 15.37c-.19-.34-.55-.56-.94-.58-.02 0-1.76-.08-2.96-1.23-1.32-1.26-1.99-3.22-2-3.24-.12-.36-.42-.64-.79-.73-3.03-.77-4.5-5.38-4.52-5.43-.12-.4-.45-.69-.86-.77s-.83.08-1.09.4c-2.5 3.12-2.81 6.2-2.23 8.71-1.89-.96-4.02-1.5-6.28-1.5-7.67 0-13.92 6.24-13.92 13.92 0 2.03.44 3.97 1.23 5.71-4-.58-7.4 1.64-8.84 3.19-.29.32-.38.77-.22 1.17s.53.68.96.71c.65.05 2.56.39 3.58 1.37 1.32 1.26 1.99 3.22 2 3.24.12.36.42.64.79.73 3.03.77 4.5 5.38 4.52 5.43.12.4.45.69.86.77.07.01.14.02.21.02.34 0 .66-.15.88-.42 2.95-3.68 3.2-6.83 2.75-9.03 1.61.65 3.37 1.02 5.22 1.02 7.67 0 13.92-6.24 13.92-13.92 0-1.72-.32-3.37-.89-4.89.64.13 1.26.19 1.84.19 3.56 0 5.9-2.2 6.78-3.73.2-.34.2-.76 0-1.1zm-30.25 28.45c-.84-1.67-2.36-3.92-4.71-4.78-.35-.83-1.12-2.41-2.36-3.6-.73-.7-1.65-1.15-2.5-1.45 1.61-.99 4.22-1.92 7.2-.53.76.97 1.64 1.84 2.63 2.58.37.48 2.35 3.4-.26 7.78zm-3.08-18.92c0-4.42 2.47-8.27 6.09-10.25.78.71 4.37 4.32 4.91 11.29.39 5.03 2.15 8.41 3.47 10.28-.9.22-1.83.35-2.8.35-6.44 0-11.67-5.24-11.67-11.67zm16.69 10.53c-1.11-1.43-3.05-4.6-3.44-9.66-.5-6.48-3.34-10.37-4.9-12.04 1.06-.32 2.17-.49 3.33-.49 6.44 0 11.67 5.24 11.67 11.67 0 4.64-2.73 8.64-6.66 10.52zm6.65-18.18s-.04-.01-.07-.02c-.33-.5-.69-.97-1.08-1.42-.03-.04-.06-.08-.09-.11-.17-.18-3.79-4.02-1.27-8.85.85 1.66 2.36 3.87 4.68 4.73.35.83 1.12 2.41 2.36 3.6.75.72 1.62 1.16 2.38 1.43-1.22 1.03-3.48 2.09-6.91.64z" fill="#2f4f50"/></svg>