<svg fill="none" height="480" viewBox="0 0 480 480" width="480" xmlns="http://www.w3.org/2000/svg"><path d="m137.325 103.05c-9.375-9.3754-24.6-9.3754-33.975 0-9.3754 9.375-9.3754 24.6 0 33.975l103.05 102.975-102.975 103.05c-9.3754 9.375-9.3754 24.6 0 33.975 9.375 9.375 24.6 9.375 33.975 0l102.975-103.05 103.05 102.975c9.375 9.375 24.6 9.375 33.975 0s9.375-24.6 0-33.975l-103.05-102.975 102.975-103.05c9.375-9.375 9.375-24.6 0-33.975-9.375-9.3754-24.6-9.3754-33.975 0l-102.975 103.05z" fill="#2e4f4f"/></svg>