<?xml version="1.0" encoding="UTF-8"?>
<svg id="Ebene_1" data-name="Ebene 1" xmlns="http://www.w3.org/2000/svg" version="1.1" viewBox="0 0 1280 1024">
  <defs>
    <style>
      .cls-1 {
        fill: #000;
        stroke-width: 0px;
      }
    </style>
  </defs>
  <path class="cls-1" d="M628.65,312.25h24.23c1.16.77,2.51.61,3.79.7,10.93.78,21.71,2.53,32.32,5.27,98.45,25.41,161.42,116.44,149.92,217.71-5.8,51.05-28.26,94.24-67.49,127.31-57.73,48.68-123.93,62.54-195.43,38.03-73.33-25.14-116.99-78.11-132.57-154.05-1.51-7.36-2.13-14.89-3.17-22.35,0-8.34,0-16.68,0-25.01,1.01-7.32,1.81-14.68,3.06-21.96,13.9-81.06,77.45-146.08,157.94-161.8,9.07-1.77,18.27-2.49,27.39-3.85ZM653.6,568.18c0-12.76.11-25.53-.08-38.29-.05-3.32.98-4.15,4.18-4.05,7.55.23,15.11.09,22.66.07,5.71-.02,7.09-1.35,7.71-6.93.86-7.76,1.77-15.52,2.77-23.26.78-6.01-1.05-8.25-7.1-8.26-8.99-.03-17.97-.06-26.96.03-2.16.02-3.31-.25-3.25-2.9.2-8.07-.08-16.16.22-24.22.31-8.28,4.88-12.8,13.15-13.72,5.46-.61,10.93-.28,16.4-.39,4.99-.1,6.71-1.67,6.78-6.5.09-7.03.1-14.07,0-21.1-.07-4.56-1.94-6.3-6.54-6.33-7.16-.05-14.33-.08-21.49.01-27.09.35-44.42,17.37-45.14,44.42-.24,9.11-.21,18.23-.09,27.35.04,2.77-.87,3.58-3.56,3.49-5.73-.17-11.46-.11-17.19-.03-4.53.06-6.4,1.95-6.43,6.47-.06,8.47-.06,16.93,0,25.4.03,4.6,1.8,6.39,6.37,6.45,5.47.08,10.95.22,16.41-.05,3.5-.18,4.59.78,4.56,4.47-.21,25.4-.18,50.79-.21,76.19,0,5.12.8,5.91,5.87,5.92,8.34.02,16.67.02,25.01,0,4.9-.01,5.95-1.04,5.95-5.94.02-12.76,0-25.53,0-38.29Z"/>
</svg>