<?xml version="1.0" encoding="UTF-8"?>
<svg id="Ebene_1" data-name="Ebene 1" xmlns="http://www.w3.org/2000/svg" version="1.1" viewBox="0 0 1280 1024">
  <defs>
    <style>
      .cls-1 {
        fill: #000;
        stroke-width: 0px;
      }
    </style>
  </defs>
  <path class="cls-1" d="M628.65,312.25h24.23c1.16.77,2.51.61,3.79.7,10.93.78,21.71,2.53,32.32,5.27,98.45,25.4,161.42,116.44,149.92,217.71-5.8,51.05-28.26,94.24-67.49,127.31-57.73,48.68-123.93,62.55-195.43,38.03-73.33-25.14-116.99-78.11-132.57-154.05-1.51-7.36-2.13-14.9-3.17-22.35,0-8.34,0-16.68,0-25.01,1.01-7.32,1.81-14.68,3.06-21.96,13.9-81.07,77.44-146.08,157.94-161.8,9.07-1.77,18.27-2.49,27.39-3.85ZM540.32,512.36c0,13.16-.02,26.31,0,39.47.07,34.33,26.29,60.52,60.69,60.58,26.31.04,52.63.05,78.94,0,34.17-.07,60.39-26.24,60.47-60.39.07-26.44.06-52.89,0-79.33-.08-34.11-26.32-60.31-60.49-60.37-26.44-.05-52.89-.06-79.33,0-33.91.08-60.17,26.34-60.28,60.18-.04,13.29,0,26.57,0,39.86Z"/>
  <path class="cls-1" d="M720.25,512.37c0,12.89.04,25.79,0,38.68-.08,24.5-16.73,41.13-41.27,41.17-25.79.05-51.58.06-77.37,0-24.28-.06-41.02-16.74-41.08-40.97-.07-25.92-.07-51.84,0-77.76.06-24.25,16.83-40.94,41.07-40.96,25.92-.02,51.84-.03,77.76,0,24,.03,40.76,16.73,40.89,40.75.07,13.02.01,26.05.01,39.08ZM640.38,564.05c28.34.07,51.54-22.94,51.67-51.23.12-28.9-22.79-52.08-51.54-52.14-28.66-.06-51.71,22.81-51.83,51.42-.12,28.81,22.84,51.89,51.71,51.95ZM692.46,473.32c6.97,0,12.68-5.64,12.75-12.57.07-7.07-5.78-12.96-12.85-12.93-6.9.03-12.68,5.74-12.77,12.63-.1,7.07,5.72,12.88,12.87,12.87Z"/>
  <path class="cls-1" d="M671.91,511.79c.36,17.46-13.31,31.68-30.87,32.1-17.6.42-31.97-13.48-32.21-31.16-.24-17.44,13.55-31.61,31.07-31.91,17.48-.3,31.64,13.41,32,30.97Z"/>
</svg>